<?xml version="1.0" encoding="UTF-8" standalone="no"?><!DOCTYPE svg PUBLIC "-//W3C//DTD SVG 1.1//EN" "http://www.w3.org/Graphics/SVG/1.1/DTD/svg11.dtd"><svg width="100%" height="100%" viewBox="0 0 26 26" version="1.1" xmlns="http://www.w3.org/2000/svg" xmlns:xlink="http://www.w3.org/1999/xlink" xml:space="preserve" xmlns:serif="http://www.serif.com/" style="fill-rule:evenodd;clip-rule:evenodd;stroke-linejoin:round;stroke-miterlimit:1.41421;"><path id="arrow-left" d="M2.407,13.651l0,-0.026l0.002,-0.049l0.002,-0.043l0.001,-0.01c0.004,-0.066 0.012,-0.132 0.022,-0.196l0.006,-0.031c0.069,-0.371 0.246,-0.725 0.533,-1.012c0.011,-0.01 0.021,-0.021 0.032,-0.031l9.946,-9.946c0.754,-0.754 1.978,-0.754 2.732,0c0.754,0.753 0.754,1.978 0,2.732l-6.68,6.68l13.621,0c1.066,0 1.932,0.866 1.932,1.932c0,1.066 -0.866,1.932 -1.932,1.932l-13.621,0l6.68,6.68c0.754,0.754 0.754,1.978 0,2.732c-0.754,0.754 -1.978,0.754 -2.732,0l-9.946,-9.946c-0.011,-0.01 -0.021,-0.021 -0.032,-0.032c-0.287,-0.286 -0.464,-0.641 -0.533,-1.011l0,-0.002l-0.001,-0.002l-0.001,-0.005l0,-0.002l0,-0.002l-0.001,-0.005l-0.001,-0.002l0,-0.001l-0.001,-0.004l-0.001,-0.006l0,0l0,-0.001c-0.01,-0.064 -0.018,-0.129 -0.022,-0.195l-0.001,0l0,-0.001l0,-0.003l0,-0.006l0,-0.002l0,-0.001l0,-0.003l-0.001,-0.005l0,-0.003l0,-0.001l0,-0.004l0,-0.003l0,-0.003l-0.001,-0.003l0,-0.003l0,-0.003l0,-0.003l0,-0.004l0,-0.003l0,-0.001l0,-0.003l-0.001,-0.005l0,-0.003l0,-0.001l0,-0.003l0,-0.006l0,-0.002l0,-0.001l0,-0.002l0,-0.008l0,-0.002l0,0l0,-0.002l-0.001,-0.01l0,0l0,0c0,-0.009 0,-0.017 0,-0.025l0,0Z" style="fill:#307d99;"/></svg>