<?xml version="1.0" encoding="UTF-8" standalone="no"?><!DOCTYPE svg PUBLIC "-//W3C//DTD SVG 1.1//EN" "http://www.w3.org/Graphics/SVG/1.1/DTD/svg11.dtd"><svg width="100%" height="100%" viewBox="0 0 26 26" version="1.1" xmlns="http://www.w3.org/2000/svg" xmlns:xlink="http://www.w3.org/1999/xlink" xml:space="preserve" xmlns:serif="http://www.serif.com/" style="fill-rule:evenodd;clip-rule:evenodd;stroke-linejoin:round;stroke-miterlimit:1.41421;"><path id="cross" d="M10.139,12.651l-5.099,-5.099c-0.754,-0.754 -0.754,-1.978 0,-2.732c0.754,-0.754 1.978,-0.754 2.732,0l5.099,5.099l5.099,-5.099c0.754,-0.754 1.978,-0.754 2.732,0c0.754,0.754 0.754,1.978 0,2.732l-5.099,5.099l5.099,5.099c0.754,0.753 0.754,1.978 0,2.732c-0.754,0.753 -1.978,0.753 -2.732,0l-5.099,-5.099l-5.099,5.099c-0.754,0.753 -1.978,0.753 -2.732,0c-0.754,-0.754 -0.754,-1.979 0,-2.732l5.099,-5.099Z" style="fill:#307d99;"/></svg>