<?xml version="1.0" encoding="UTF-8" standalone="no"?><!DOCTYPE svg PUBLIC "-//W3C//DTD SVG 1.1//EN" "http://www.w3.org/Graphics/SVG/1.1/DTD/svg11.dtd"><svg width="100%" height="100%" viewBox="0 0 26 26" version="1.1" xmlns="http://www.w3.org/2000/svg" xmlns:xlink="http://www.w3.org/1999/xlink" xml:space="preserve" xmlns:serif="http://www.serif.com/" style="fill-rule:evenodd;clip-rule:evenodd;stroke-linejoin:round;stroke-miterlimit:1.41421;"><path id="arrow-up" d="M13.572,2.577l0.025,0l0.049,0.001l0.043,0.002l0.011,0.001c0.066,0.004 0.131,0.012 0.195,0.023l0.031,0.005c0.371,0.069 0.725,0.247 1.012,0.533c0.011,0.011 0.021,0.022 0.032,0.033l9.946,9.946c0.754,0.754 0.754,1.978 0,2.732c-0.754,0.754 -1.978,0.754 -2.732,0l-6.681,-6.681l0,13.621c0,1.067 -0.865,1.932 -1.932,1.932c-1.066,0 -1.931,-0.865 -1.931,-1.932l0,-13.621l-6.681,6.681c-0.754,0.754 -1.978,0.754 -2.732,0c-0.754,-0.754 -0.754,-1.978 0,-2.732l9.946,-9.946c0.011,-0.011 0.021,-0.022 0.032,-0.033c0.286,-0.286 0.641,-0.464 1.011,-0.533l0.002,0l0.002,-0.001l0.005,0l0.002,-0.001l0.003,0l0.004,-0.001l0.002,0l0.001,-0.001l0.005,0l0.005,-0.001l0.001,0l0,0c0.064,-0.011 0.129,-0.019 0.195,-0.023l0.001,0l0,0l0.003,-0.001l0.007,0l0.001,0l0.001,0l0.004,0l0.004,-0.001l0.003,0l0.002,0l0.003,0l0.004,0l0.002,0l0.003,0l0.003,-0.001l0.003,0l0.003,0l0.004,0l0.003,0l0.002,0l0.002,0l0.006,0l0.002,0l0.001,-0.001l0.003,0l0.006,0l0.003,0l0,0l0.003,0l0.008,0l0.001,0l0,0l0.002,0l0.01,0l0,0l0.001,0c0.008,0 0.016,0 0.024,0l0.001,0Z" style="fill:#307d99;"/></svg>