<?xml version="1.0" encoding="UTF-8" standalone="no"?><!DOCTYPE svg PUBLIC "-//W3C//DTD SVG 1.1//EN" "http://www.w3.org/Graphics/SVG/1.1/DTD/svg11.dtd"><svg width="100%" height="100%" viewBox="0 0 26 26" version="1.1" xmlns="http://www.w3.org/2000/svg" xmlns:xlink="http://www.w3.org/1999/xlink" xml:space="preserve" xmlns:serif="http://www.serif.com/" style="fill-rule:evenodd;clip-rule:evenodd;stroke-linejoin:round;stroke-miterlimit:1.41421;"><path id="dashboard" d="M14.081,12.957c1.527,0.311 2.687,1.669 2.687,3.309c0,1.866 -1.527,3.393 -3.394,3.393c-1.866,0 -3.393,-1.527 -3.393,-3.393c0,-1.046 0.481,-2.008 1.272,-2.63l-0.537,-6.023c-0.057,-0.651 0.82,-0.849 1.075,-0.255l2.29,5.599Zm-0.99,-12.81c6.872,0 12.443,5.571 12.443,12.443c0,6.871 -5.571,12.442 -12.443,12.442c-6.871,0 -12.442,-5.571 -12.442,-12.442c0,-6.872 5.571,-12.443 12.442,-12.443Zm5.091,16.119l4.411,0c0.424,-1.131 0.679,-2.375 0.679,-3.676c0,-5.628 -4.553,-10.181 -10.181,-10.181c-5.627,0 -10.18,4.553 -10.18,10.181c0,1.301 0.226,2.545 0.679,3.676l4.977,0c0,2.347 2.46,4.807 4.807,4.807c2.347,0 4.808,-2.46 4.808,-4.807Zm1.131,-3.676c0,-0.311 0.254,-0.566 0.565,-0.566l1.697,0c0.311,0 0.566,0.255 0.566,0.566c0,0.311 -0.255,0.565 -0.566,0.565l-1.697,0c-0.311,0 -0.565,-0.254 -0.565,-0.565Zm-1.81,-4.412c-0.226,-0.226 -0.226,-0.594 0,-0.792l1.188,-1.187c0.226,-0.226 0.593,-0.226 0.791,0c0.227,0.226 0.227,0.594 0,0.792l-1.187,1.187c-0.227,0.226 -0.594,0.226 -0.792,0Zm-4.412,-1.81c-0.311,0 -0.565,-0.254 -0.565,-0.565l0,-1.697c0,-0.311 0.254,-0.565 0.565,-0.565c0.311,0 0.566,0.254 0.566,0.565l0,1.697c0,0.311 -0.255,0.565 -0.566,0.565Zm-4.411,1.81c-0.226,0.226 -0.594,0.226 -0.792,0l-1.188,-1.187c-0.226,-0.227 -0.226,-0.594 0,-0.792c0.227,-0.226 0.594,-0.226 0.792,0l1.188,1.187c0.226,0.227 0.226,0.594 0,0.792Zm-1.81,4.412c0,0.311 -0.254,0.565 -0.565,0.565l-1.697,0c-0.311,0 -0.566,-0.254 -0.566,-0.565c0,-0.311 0.255,-0.566 0.566,-0.566l1.697,0c0.311,0 0.565,0.255 0.565,0.566Z" style="fill:#307d99;"/></svg>