<?xml version="1.0" encoding="UTF-8" standalone="no"?><!DOCTYPE svg PUBLIC "-//W3C//DTD SVG 1.1//EN" "http://www.w3.org/Graphics/SVG/1.1/DTD/svg11.dtd"><svg width="100%" height="100%" viewBox="0 0 26 26" version="1.1" xmlns="http://www.w3.org/2000/svg" xmlns:xlink="http://www.w3.org/1999/xlink" xml:space="preserve" xmlns:serif="http://www.serif.com/" style="fill-rule:evenodd;clip-rule:evenodd;stroke-linejoin:round;stroke-miterlimit:1.41421;"><path id="check" d="M9.085,16.384l11.563,-11.564c0.754,-0.754 1.978,-0.754 2.732,0c0.754,0.754 0.754,1.978 0,2.732l-12.929,12.93c-0.376,0.375 -0.869,0.564 -1.362,0.565l-0.004,0c0,0 -0.005,0 -0.005,0c-0.493,-0.001 -0.986,-0.19 -1.361,-0.565c0,0 -5.099,-5.099 -5.099,-5.099c-0.754,-0.754 -0.754,-1.978 0,-2.732c0.754,-0.754 1.978,-0.754 2.732,0l3.733,3.733Z" style="fill:#307d99;"/></svg>