<?xml version="1.0" encoding="UTF-8" standalone="no"?><!DOCTYPE svg PUBLIC "-//W3C//DTD SVG 1.1//EN" "http://www.w3.org/Graphics/SVG/1.1/DTD/svg11.dtd"><svg width="100%" height="100%" viewBox="0 0 26 26" version="1.1" xmlns="http://www.w3.org/2000/svg" xmlns:xlink="http://www.w3.org/1999/xlink" xml:space="preserve" xmlns:serif="http://www.serif.com/" style="fill-rule:evenodd;clip-rule:evenodd;stroke-linejoin:round;stroke-miterlimit:1.41421;"><path id="chevron-up" d="M13.785,6.73c0.495,0 0.989,0.188 1.366,0.566c0.011,0.01 0.021,0.021 0.032,0.032l9.946,9.946c0.754,0.754 0.754,1.978 0,2.732c-0.754,0.754 -1.978,0.754 -2.732,0l-8.612,-8.612l-8.612,8.612c-0.754,0.754 -1.978,0.754 -2.732,0c-0.754,-0.754 -0.754,-1.978 0,-2.732l9.946,-9.946c0.011,-0.011 0.021,-0.022 0.032,-0.032c0.377,-0.378 0.871,-0.566 1.366,-0.566Z" style="fill:#307d99;"/></svg>