<?xml version="1.0" encoding="UTF-8" standalone="no"?><!DOCTYPE svg PUBLIC "-//W3C//DTD SVG 1.1//EN" "http://www.w3.org/Graphics/SVG/1.1/DTD/svg11.dtd"><svg width="100%" height="100%" viewBox="0 0 26 26" version="1.1" xmlns="http://www.w3.org/2000/svg" xmlns:xlink="http://www.w3.org/1999/xlink" xml:space="preserve" xmlns:serif="http://www.serif.com/" style="fill-rule:evenodd;clip-rule:evenodd;stroke-linejoin:round;stroke-miterlimit:1.41421;"><path id="arrow-right" d="M24.949,13.651l0,0.025l-0.001,0.049l-0.002,0.044l-0.001,0.01c-0.004,0.066 -0.012,0.131 -0.023,0.195l-0.005,0.032c-0.069,0.37 -0.247,0.725 -0.533,1.011c-0.011,0.011 -0.022,0.022 -0.033,0.032l-9.946,9.946c-0.754,0.754 -1.978,0.754 -2.732,0c-0.754,-0.754 -0.754,-1.978 0,-2.732l6.681,-6.68l-13.622,0c-1.066,0 -1.932,-0.866 -1.932,-1.932c0,-1.066 0.866,-1.932 1.932,-1.932l13.622,0l-6.681,-6.68c-0.754,-0.754 -0.754,-1.979 0,-2.732c0.754,-0.754 1.978,-0.754 2.732,0l9.946,9.946c0.011,0.01 0.022,0.021 0.033,0.031c0.286,0.287 0.464,0.641 0.533,1.012l0,0.001l0,0.003l0.001,0.004l0,0.002l0.001,0.003l0.001,0.005l0,0.002l0,0.001l0.001,0.004l0.001,0.006l0,0l0,0c0.011,0.064 0.019,0.13 0.023,0.196l0,0l0,0l0,0.004l0.001,0.006l0,0.002l0,0.001l0,0.003l0,0.005l0,0.002l0,0.002l0.001,0.003l0,0.004l0,0.003l0,0.003l0,0.003l0,0.002l0,0.003l0.001,0.004l0,0.003l0,0.002l0,0.003l0,0.005l0,0.003l0,0.001l0,0.003l0,0.006l0,0.002l0,0.001l0.001,0.002l0,0.008l0,0.001l0,0.001l0,0.002l0,0.009l0,0.001l0,0c0,0.008 0,0.016 0,0.025l0,0Z" style="fill:#307d99;"/></svg>