<?xml version="1.0" encoding="UTF-8" standalone="no"?><!DOCTYPE svg PUBLIC "-//W3C//DTD SVG 1.1//EN" "http://www.w3.org/Graphics/SVG/1.1/DTD/svg11.dtd"><svg width="100%" height="100%" viewBox="0 0 26 26" version="1.1" xmlns="http://www.w3.org/2000/svg" xmlns:xlink="http://www.w3.org/1999/xlink" xml:space="preserve" xmlns:serif="http://www.serif.com/" style="fill-rule:evenodd;clip-rule:evenodd;stroke-linejoin:round;stroke-miterlimit:1.41421;"><g id="envelope"><path d="M12.523,14.169c0.664,0 1.3,-0.257 1.769,-0.714l9.331,-9.052c-0.343,-0.166 -0.719,-0.252 -1.1,-0.252l-20,0c-0.382,0 -0.758,0.086 -1.1,0.252l9.331,9.065c0.471,0.452 1.107,0.704 1.769,0.7l0,0.001Z" style="fill:#307d99;"/><path d="M15.176,14.327c-0.712,0.689 -1.665,1.073 -2.656,1.071c-0.991,0.002 -1.944,-0.382 -2.656,-1.071l-9.391,-9.132c-0.293,0.406 -0.45,0.89 -0.45,1.386l0,12.14c0,1.343 1.12,2.43 2.5,2.43l20,0c1.38,0 2.5,-1.087 2.5,-2.429l0,-12.141c0,-0.495 -0.158,-0.977 -0.45,-1.382l-9.397,9.129l0,-0.001Z" style="fill:#307d99;"/></g></svg>