<?xml version="1.0" encoding="UTF-8" standalone="no"?><!DOCTYPE svg PUBLIC "-//W3C//DTD SVG 1.1//EN" "http://www.w3.org/Graphics/SVG/1.1/DTD/svg11.dtd"><svg width="100%" height="100%" viewBox="0 0 26 26" version="1.1" xmlns="http://www.w3.org/2000/svg" xmlns:xlink="http://www.w3.org/1999/xlink" xml:space="preserve" xmlns:serif="http://www.serif.com/" style="fill-rule:evenodd;clip-rule:evenodd;stroke-linejoin:round;stroke-miterlimit:1.41421;"><path id="cog" d="M12.762,0.516c-0.148,0 -0.214,0.011 -0.198,0.011c-0.439,0.007 -0.82,0.303 -0.935,0.726c-0.168,0.611 -0.394,1.214 -0.639,1.628c-0.245,0.414 -0.474,0.585 -0.594,0.616c-0.118,0.031 -0.4,-0.009 -0.814,-0.253c-0.414,-0.244 -0.899,-0.658 -1.342,-1.111c-0.306,-0.319 -0.787,-0.396 -1.177,-0.187c-1.108,0.594 -2.112,1.356 -2.981,2.255c-0.305,0.317 -0.363,0.797 -0.143,1.177c0.314,0.55 0.572,1.132 0.693,1.596c0.12,0.463 0.072,0.743 0.011,0.847c-0.063,0.105 -0.274,0.274 -0.737,0.396c-0.464,0.122 -1.107,0.171 -1.739,0.165c-0.443,-0.004 -0.835,0.288 -0.957,0.715c-0.335,1.106 -0.517,2.268 -0.517,3.487c0,0.147 0.011,0.229 0.011,0.22c0.007,0.439 0.303,0.82 0.726,0.935c0.611,0.167 1.205,0.385 1.617,0.627c0.413,0.242 0.586,0.478 0.616,0.594c0.031,0.117 -0.009,0.389 -0.253,0.804c-0.244,0.414 -0.658,0.909 -1.111,1.353c-0.309,0.302 -0.384,0.77 -0.187,1.155c0.595,1.111 1.356,2.122 2.256,2.992c0.314,0.308 0.794,0.371 1.177,0.154c0.55,-0.314 1.138,-0.583 1.606,-0.704c0.468,-0.121 0.744,-0.072 0.847,-0.011c0.105,0.062 0.286,0.283 0.407,0.748c0.12,0.465 0.162,1.105 0.154,1.738c-0.001,0.437 0.286,0.822 0.704,0.947c1.106,0.335 2.279,0.528 3.498,0.528c0.154,0 0.203,-0.012 0.166,-0.011c0.442,-0.002 0.829,-0.299 0.946,-0.726c0.168,-0.61 0.391,-1.214 0.638,-1.629c0.247,-0.414 0.485,-0.574 0.605,-0.605c0.118,-0.03 0.4,0 0.814,0.242c0.414,0.245 0.898,0.667 1.342,1.123c0.304,0.314 0.779,0.39 1.166,0.187c1.117,-0.597 2.132,-1.365 3.003,-2.267c0.305,-0.316 0.364,-0.796 0.144,-1.177c-0.317,-0.55 -0.582,-1.139 -0.705,-1.606c-0.122,-0.467 -0.072,-0.743 -0.01,-0.847c0.063,-0.108 0.279,-0.285 0.748,-0.407c0.468,-0.122 1.113,-0.173 1.749,-0.165c0.44,0.005 0.831,-0.282 0.957,-0.704c0.332,-1.102 0.517,-2.277 0.517,-3.488c0,-0.149 -0.011,-0.209 -0.011,-0.187c-0.007,-0.438 -0.303,-0.819 -0.726,-0.935c-0.609,-0.167 -1.216,-0.382 -1.628,-0.627c-0.412,-0.245 -0.574,-0.484 -0.605,-0.605c-0.031,-0.12 0,-0.401 0.242,-0.814c0.242,-0.414 0.659,-0.899 1.111,-1.342c0.314,-0.304 0.39,-0.779 0.187,-1.166c-0.594,-1.11 -1.355,-2.123 -2.255,-2.993c-0.317,-0.304 -0.797,-0.363 -1.177,-0.143c-0.552,0.315 -1.142,0.572 -1.607,0.693c-0.465,0.121 -0.741,0.074 -0.847,0.011c-0.109,-0.064 -0.274,-0.282 -0.396,-0.748c-0.121,-0.466 -0.173,-1.103 -0.165,-1.738c0.004,-0.444 -0.288,-0.835 -0.715,-0.957c-1.106,-0.334 -2.275,-0.517 -3.487,-0.517l0,0Zm0,6.898c2.848,0 5.181,2.322 5.181,5.17c0,2.848 -2.333,5.182 -5.181,5.182c-2.848,0 -5.171,-2.334 -5.171,-5.182c0,-2.848 2.323,-5.17 5.171,-5.17Z" style="fill:#307d99;fill-rule:nonzero;"/></svg>