<?xml version="1.0" encoding="UTF-8" standalone="no"?><!DOCTYPE svg PUBLIC "-//W3C//DTD SVG 1.1//EN" "http://www.w3.org/Graphics/SVG/1.1/DTD/svg11.dtd"><svg width="100%" height="100%" viewBox="0 0 26 26" version="1.1" xmlns="http://www.w3.org/2000/svg" xmlns:xlink="http://www.w3.org/1999/xlink" xml:space="preserve" xmlns:serif="http://www.serif.com/" style="fill-rule:evenodd;clip-rule:evenodd;stroke-linejoin:round;stroke-miterlimit:1.41421;"><path id="chevron-down" d="M13.085,20.572c-0.495,0 -0.99,-0.189 -1.367,-0.566c-0.01,-0.01 -0.021,-0.021 -0.031,-0.032l-9.947,-9.946c-0.753,-0.754 -0.753,-1.979 0,-2.732c0.754,-0.754 1.979,-0.754 2.732,0l8.613,8.612l8.612,-8.612c0.754,-0.754 1.978,-0.754 2.732,0c0.754,0.753 0.754,1.978 0,2.732l-9.947,9.946c-0.01,0.011 -0.02,0.022 -0.031,0.032c-0.377,0.377 -0.872,0.566 -1.366,0.566Z" style="fill:#307d99;"/></svg>