<?xml version="1.0" encoding="UTF-8" standalone="no"?><!DOCTYPE svg PUBLIC "-//W3C//DTD SVG 1.1//EN" "http://www.w3.org/Graphics/SVG/1.1/DTD/svg11.dtd"><svg width="100%" height="100%" viewBox="0 0 26 26" version="1.1" xmlns="http://www.w3.org/2000/svg" xmlns:xlink="http://www.w3.org/1999/xlink" xml:space="preserve" xmlns:serif="http://www.serif.com/" style="fill-rule:evenodd;clip-rule:evenodd;stroke-linejoin:round;stroke-miterlimit:1.41421;"><path id="arrow-down" d="M13.178,24.725l-0.025,0l-0.049,-0.001l-0.044,-0.002l-0.01,-0.001c-0.066,-0.004 -0.131,-0.012 -0.195,-0.023l-0.032,-0.005c-0.37,-0.069 -0.725,-0.247 -1.011,-0.533c-0.011,-0.011 -0.022,-0.022 -0.032,-0.033l-9.946,-9.946c-0.754,-0.754 -0.754,-1.978 0,-2.732c0.754,-0.754 1.978,-0.754 2.732,0l6.68,6.681l0,-13.622c0,-1.066 0.866,-1.931 1.932,-1.931c1.066,0 1.932,0.865 1.932,1.931l0,13.622l6.681,-6.681c0.753,-0.754 1.978,-0.754 2.731,0c0.754,0.754 0.754,1.978 0,2.732l-9.946,9.946c-0.01,0.011 -0.021,0.022 -0.031,0.033c-0.287,0.286 -0.641,0.464 -1.012,0.533l-0.001,0l-0.003,0l-0.004,0.001l-0.002,0l-0.003,0.001l-0.005,0.001l-0.002,0l-0.001,0l-0.004,0.001l-0.006,0.001l0,0l0,0c-0.064,0.011 -0.129,0.019 -0.196,0.023l0,0l0,0l-0.004,0l-0.006,0.001l-0.002,0l-0.001,0l-0.003,0l-0.005,0l-0.002,0l-0.002,0l-0.003,0.001l-0.004,0l-0.003,0l-0.003,0l-0.003,0l-0.002,0l-0.003,0l-0.004,0.001l-0.003,0l-0.002,0l-0.003,0l-0.005,0l-0.003,0l-0.001,0l-0.002,0l-0.007,0l-0.002,0.001l-0.001,0l-0.002,0l-0.008,0l-0.001,0l-0.001,0l-0.002,0l-0.009,0l-0.001,0l0,0c-0.008,0 -0.016,0 -0.025,0l0,0Z" style="fill:#307d99;"/></svg>