<?xml version="1.0" encoding="UTF-8" standalone="no"?><!DOCTYPE svg PUBLIC "-//W3C//DTD SVG 1.1//EN" "http://www.w3.org/Graphics/SVG/1.1/DTD/svg11.dtd"><svg width="100%" height="100%" viewBox="0 0 26 26" version="1.1" xmlns="http://www.w3.org/2000/svg" xmlns:xlink="http://www.w3.org/1999/xlink" xml:space="preserve" xmlns:serif="http://www.serif.com/" style="fill-rule:evenodd;clip-rule:evenodd;stroke-linejoin:round;stroke-miterlimit:1.41421;"><path id="copy" d="M21.829,5.804l-2.8,0l0,-3.571c0,-1.172 -0.952,-2.143 -2.1,-2.143l-11.9,0c-1.148,0 -2.1,0.971 -2.1,2.143l0,15c0,1.171 0.952,2.142 2.1,2.142l2.8,0l0,3.572c0,1.171 0.952,2.143 2.1,2.143l11.9,0c1.148,0 2.1,-0.972 2.1,-2.143l0,-15c0,-1.172 -0.952,-2.143 -2.1,-2.143Zm-14,2.143l0,9.286l-2.8,0l0,-15l11.9,0l0,3.571l-7,0c-1.148,0 -2.1,0.971 -2.1,2.143Zm14,15l-11.9,0l0,-15l11.9,0l0,15Z" style="fill:#307d99;fill-rule:nonzero;"/></svg>