<?xml version="1.0" encoding="UTF-8" standalone="no"?><!DOCTYPE svg PUBLIC "-//W3C//DTD SVG 1.1//EN" "http://www.w3.org/Graphics/SVG/1.1/DTD/svg11.dtd"><svg width="100%" height="100%" viewBox="0 0 26 26" version="1.1" xmlns="http://www.w3.org/2000/svg" xmlns:xlink="http://www.w3.org/1999/xlink" xml:space="preserve" xmlns:serif="http://www.serif.com/" style="fill-rule:evenodd;clip-rule:evenodd;stroke-linejoin:round;stroke-miterlimit:1.41421;"><path id="external-link" d="M11.592,16.02c-0.01,0 -0.021,0 -0.031,0c-0.429,-0.008 -0.829,-0.183 -1.127,-0.492c-0.613,-0.636 -0.595,-1.651 0.038,-2.266l9.937,-9.938l-3.365,0c-0.014,0 -0.027,0 -0.04,0c-0.886,-0.012 -1.596,-0.743 -1.584,-1.629c0.013,-0.878 0.731,-1.584 1.606,-1.584c0.006,0 0.012,0.001 0.018,0.001l7.082,0c0.04,-0.005 0.081,-0.008 0.121,-0.009c0.005,0 0.01,0 0.015,0c0.085,-0.002 0.17,0.003 0.254,0.015c0.425,0.058 0.802,0.279 1.06,0.621c0.248,0.328 0.36,0.729 0.318,1.135l0,7.088c0,0.013 0,0.025 -0.001,0.038c-0.006,0.43 -0.178,0.831 -0.486,1.13c-0.308,0.299 -0.713,0.46 -1.142,0.455c-0.884,-0.013 -1.593,-0.74 -1.584,-1.624l0,-3.365l-9.938,9.938c-0.013,0.012 -0.025,0.025 -0.038,0.038c-0.301,0.289 -0.696,0.448 -1.113,0.448Zm-0.254,9.048c-2.111,0 -3.786,-0.003 -5.13,-0.155c-2.184,-0.247 -3.095,-0.908 -3.645,-1.456c-1.05,-1.047 -1.336,-2.498 -1.467,-3.646c-0.158,-1.385 -0.158,-3.126 -0.158,-5.329l0,-0.183c0,-2.193 0,-3.924 0.154,-5.303c0.246,-2.188 0.906,-3.098 1.454,-3.646c1.045,-1.047 2.498,-1.33 3.648,-1.46c1.373,-0.155 3.093,-0.154 5.272,-0.154l0.138,0c0.004,0 0.008,0 0.013,0c0.007,0 0.015,0 0.022,0c0.429,0.006 0.83,0.179 1.129,0.486c0.3,0.308 0.461,0.714 0.455,1.143c-0.013,0.878 -0.731,1.583 -1.606,1.583c-0.006,0 -0.012,0 -0.017,0c-2.324,0 -3.93,0.01 -5.046,0.136c-0.909,0.102 -1.476,0.278 -1.735,0.536c-0.258,0.259 -0.433,0.827 -0.535,1.735c-0.125,1.111 -0.134,2.648 -0.134,5.047c0,2.314 0.01,3.915 0.139,5.043c0.104,0.909 0.281,1.477 0.542,1.737c0.26,0.259 0.828,0.435 1.738,0.538c1.114,0.126 2.717,0.135 5.035,0.135c2.314,0 3.915,-0.009 5.034,-0.137c0.909,-0.103 1.477,-0.28 1.738,-0.541c0.261,-0.26 0.439,-0.829 0.543,-1.738c0.129,-1.126 0.138,-2.724 0.138,-5.033c0,-0.013 0,-0.027 0.001,-0.041c0.006,-0.428 0.178,-0.829 0.486,-1.128c0.308,-0.299 0.714,-0.46 1.142,-0.454c0.884,0.012 1.593,0.74 1.584,1.623l0,0c0,2.234 0,3.998 -0.16,5.398c-0.251,2.186 -0.913,3.097 -1.463,3.645c-1.046,1.045 -2.498,1.33 -3.647,1.461c-1.391,0.158 -3.141,0.159 -5.353,0.158l-0.18,0l-0.129,0Z" style="fill:#307d99;"/></svg>