<?xml version="1.0" encoding="UTF-8" standalone="no"?><!DOCTYPE svg PUBLIC "-//W3C//DTD SVG 1.1//EN" "http://www.w3.org/Graphics/SVG/1.1/DTD/svg11.dtd"><svg width="100%" height="100%" viewBox="0 0 26 26" version="1.1" xmlns="http://www.w3.org/2000/svg" xmlns:xlink="http://www.w3.org/1999/xlink" xml:space="preserve" xmlns:serif="http://www.serif.com/" style="fill-rule:evenodd;clip-rule:evenodd;stroke-linejoin:round;stroke-miterlimit:1.41421;"><path d="M23.993,8.885c1.961,-1.962 1.961,-5.19 0,-7.152c-1.963,-1.962 -5.19,-1.962 -7.153,0l-1.17,1.171l7.151,7.152l1.171,-1.17l0.001,-0.001Zm-21.172,15.918l4.178,0.095l0.031,0c0.475,0 0.918,-0.158 1.298,-0.443l-7.089,-7.12c-0.285,0.38 -0.443,0.822 -0.443,1.265l-0.095,3.956c0,0.57 0.19,1.14 0.601,1.55c0.412,0.444 0.95,0.697 1.52,0.697l-0.001,0Zm0.198,-9.267l10.874,-10.875l7.16,7.16l-10.874,10.876l-7.16,-7.161Z" style="fill:#307d99;"/></svg>