<?xml version="1.0" encoding="UTF-8" standalone="no"?><!DOCTYPE svg PUBLIC "-//W3C//DTD SVG 1.1//EN" "http://www.w3.org/Graphics/SVG/1.1/DTD/svg11.dtd"><svg width="100%" height="100%" viewBox="0 0 26 26" version="1.1" xmlns="http://www.w3.org/2000/svg" xmlns:xlink="http://www.w3.org/1999/xlink" xml:space="preserve" xmlns:serif="http://www.serif.com/" style="fill-rule:evenodd;clip-rule:evenodd;stroke-linejoin:round;stroke-miterlimit:1.41421;"><path id="search" d="M10.712,0.151c-5.703,0 -10.37,4.656 -10.37,10.36c0,5.703 4.667,10.37 10.37,10.37c2.192,0 4.223,-0.702 5.897,-1.869l5.606,5.596c0.713,0.724 1.88,0.724 2.593,0c0.712,-0.713 0.712,-1.869 0,-2.582l-5.606,-5.606c1.177,-1.686 1.868,-3.716 1.868,-5.909c0,-5.704 -4.666,-10.36 -10.358,-10.36Zm0,3.651c3.715,0 6.697,2.982 6.697,6.709c0,3.726 -2.982,6.708 -6.697,6.708c-3.727,0 -6.708,-2.982 -6.708,-6.708c0,-3.727 2.981,-6.709 6.708,-6.709Z" style="fill:#307d99;fill-rule:nonzero;"/></svg>