<?xml version="1.0" encoding="UTF-8" standalone="no"?><!DOCTYPE svg PUBLIC "-//W3C//DTD SVG 1.1//EN" "http://www.w3.org/Graphics/SVG/1.1/DTD/svg11.dtd"><svg width="100%" height="100%" viewBox="0 0 26 26" version="1.1" xmlns="http://www.w3.org/2000/svg" xmlns:xlink="http://www.w3.org/1999/xlink" xml:space="preserve" xmlns:serif="http://www.serif.com/" style="fill-rule:evenodd;clip-rule:evenodd;stroke-linejoin:round;stroke-miterlimit:1.41421;"><path id="Logout" d="M0.902,4.917c0.043,-0.219 0.081,-0.438 0.13,-0.658c0.538,-2.376 2.653,-4.103 5.104,-4.158c0.701,-0.016 1.404,-0.014 2.105,0c1.175,0.02 2.103,0.945 2.119,2.096c0.023,1.167 -0.899,2.135 -2.066,2.169c-0.624,0.022 -1.248,0.003 -1.872,0.007c-0.815,0.006 -1.248,0.444 -1.249,1.26c0,4.613 0,9.227 0,13.843c0,0.831 0.435,1.267 1.262,1.272c0.65,0.004 1.301,-0.019 1.949,0.017c1.521,0.085 2.457,1.777 1.728,3.119c-0.362,0.666 -0.926,1.102 -1.694,1.131c-0.933,0.035 -1.876,0.054 -2.803,-0.037c-2.358,-0.232 -4.332,-2.187 -4.658,-4.531c-0.011,-0.086 -0.036,-0.168 -0.055,-0.251c0,-5.093 0,-10.186 0,-15.279Zm17.619,5.878c-0.102,-0.112 -0.161,-0.18 -0.224,-0.244c-0.903,-0.91 -1.811,-1.817 -2.708,-2.733c-0.723,-0.741 -0.813,-1.875 -0.228,-2.692c0.62,-0.868 1.738,-1.178 2.673,-0.719c0.232,0.117 0.443,0.27 0.626,0.454c2.179,2.171 4.352,4.346 6.521,6.526c0.895,0.899 0.893,2.185 -0.004,3.085c-2.123,2.128 -4.248,4.254 -6.378,6.376c-0.886,0.884 -2.207,0.89 -3.072,0.029c-0.845,-0.841 -0.825,-2.159 0.055,-3.048c0.835,-0.844 1.675,-1.683 2.519,-2.516c0.066,-0.056 0.137,-0.107 0.211,-0.151l-0.04,-0.095l-0.285,0c-2.912,0 -5.824,0 -8.736,0c-1.036,0 -1.922,-0.675 -2.149,-1.624c-0.328,-1.367 0.673,-2.637 2.1,-2.643c1.88,-0.009 3.761,0 5.642,0l3.477,0l0,-0.005Z" style="fill:#307d99;"/></svg>