<?xml version="1.0" encoding="UTF-8" standalone="no"?><!DOCTYPE svg PUBLIC "-//W3C//DTD SVG 1.1//EN" "http://www.w3.org/Graphics/SVG/1.1/DTD/svg11.dtd"><svg width="100%" height="100%" viewBox="0 0 26 26" version="1.1" xmlns="http://www.w3.org/2000/svg" xmlns:xlink="http://www.w3.org/1999/xlink" xml:space="preserve" xmlns:serif="http://www.serif.com/" style="fill-rule:evenodd;clip-rule:evenodd;stroke-linejoin:round;stroke-miterlimit:1.41421;"><path id="twitter" d="M25.265,6.018c-0.92,0.402 -1.908,0.673 -2.946,0.795c1.059,-0.624 1.872,-1.614 2.255,-2.793c-0.991,0.579 -2.088,0.999 -3.257,1.225c-0.935,-0.981 -2.268,-1.594 -3.744,-1.594c-2.832,0 -5.129,2.26 -5.129,5.049c0,0.395 0.046,0.781 0.133,1.15c-4.263,-0.21 -8.042,-2.22 -10.572,-5.275c-0.441,0.746 -0.694,1.613 -0.694,2.538c0,1.752 0.905,3.297 2.282,4.203c-0.841,-0.026 -1.632,-0.254 -2.324,-0.632c0,0.021 0,0.042 0,0.064c0,2.446 1.768,4.487 4.114,4.951c-0.43,0.115 -0.883,0.177 -1.351,0.177c-0.33,0 -0.652,-0.032 -0.965,-0.091c0.653,2.006 2.547,3.466 4.791,3.506c-1.755,1.355 -3.966,2.162 -6.37,2.162c-0.414,0 -0.822,-0.024 -1.223,-0.071c2.27,1.433 4.966,2.269 7.862,2.269c9.434,0 14.594,-7.694 14.594,-14.366c0,-0.219 -0.005,-0.437 -0.015,-0.653c1.002,-0.712 1.871,-1.601 2.559,-2.614Z" style="fill:#307d99;"/></svg>