<?xml version="1.0" encoding="UTF-8" standalone="no"?><!DOCTYPE svg PUBLIC "-//W3C//DTD SVG 1.1//EN" "http://www.w3.org/Graphics/SVG/1.1/DTD/svg11.dtd"><svg width="100%" height="100%" viewBox="0 0 26 26" version="1.1" xmlns="http://www.w3.org/2000/svg" xmlns:xlink="http://www.w3.org/1999/xlink" xml:space="preserve" xmlns:serif="http://www.serif.com/" style="fill-rule:evenodd;clip-rule:evenodd;stroke-linejoin:round;stroke-miterlimit:1.41421;"><path id="lock" d="M13.24,3.354c2.516,0 4.563,1.975 4.563,4.403l0,2.284l-9.126,0l0,-2.284c0,-2.428 2.047,-4.403 4.563,-4.403m7.948,6.704l0,-2.301c0,-4.227 -3.567,-7.667 -7.948,-7.667c-4.381,0 -7.947,3.44 -7.947,7.667l0,2.301c-1.142,0.083 -2.053,0.999 -2.053,2.122l0,10.77c0,1.177 0.998,2.14 2.218,2.14l15.565,0c1.219,0 2.217,-0.963 2.217,-2.14l0,-10.77c0,-1.123 -0.91,-2.039 -2.052,-2.122" style="fill:#307d99;"/></svg>