<?xml version="1.0" encoding="UTF-8" standalone="no"?><!DOCTYPE svg PUBLIC "-//W3C//DTD SVG 1.1//EN" "http://www.w3.org/Graphics/SVG/1.1/DTD/svg11.dtd"><svg width="100%" height="100%" viewBox="0 0 26 26" version="1.1" xmlns="http://www.w3.org/2000/svg" xmlns:xlink="http://www.w3.org/1999/xlink" xml:space="preserve" xmlns:serif="http://www.serif.com/" style="fill-rule:evenodd;clip-rule:evenodd;stroke-linejoin:round;stroke-miterlimit:1.41421;"><path id="plus" d="M11.729,11.719l0,-7.211c0,-1.066 0.866,-1.931 1.932,-1.931c1.066,0 1.932,0.865 1.932,1.931l0,7.211l7.21,0c1.066,0 1.932,0.866 1.932,1.932c0,1.066 -0.866,1.932 -1.932,1.932l-7.21,0l0,7.21c0,1.067 -0.866,1.932 -1.932,1.932c-1.066,0 -1.932,-0.865 -1.932,-1.932l0,-7.21l-7.211,0c-1.066,0 -1.932,-0.866 -1.932,-1.932c0,-1.066 0.866,-1.932 1.932,-1.932l7.211,0Z" style="fill:#307d99;"/></svg>