<?xml version="1.0" encoding="UTF-8" standalone="no"?><!DOCTYPE svg PUBLIC "-//W3C//DTD SVG 1.1//EN" "http://www.w3.org/Graphics/SVG/1.1/DTD/svg11.dtd"><svg width="100%" height="100%" viewBox="0 0 26 26" version="1.1" xmlns="http://www.w3.org/2000/svg" xmlns:xlink="http://www.w3.org/1999/xlink" xml:space="preserve" xmlns:serif="http://www.serif.com/" style="fill-rule:evenodd;clip-rule:evenodd;stroke-linejoin:round;stroke-miterlimit:1.41421;"><path d="M25.151,12.701l-10.923,-9.661c-0.58,-0.517 -1.448,-0.517 -2.053,0l-10.924,9.661c-0.684,0.599 -0.737,1.687 -0.105,2.368c0.579,0.626 1.553,0.626 2.184,0.054l1.395,-1.225l0,8.82c0,1.061 0.843,1.932 1.87,1.932l2.947,0c0.606,0 1.106,-0.517 1.106,-1.143l0,-4.845c0,-0.817 0.658,-1.497 1.448,-1.497l2.237,0c0.79,0 1.448,0.68 1.448,1.497l0,4.845c0,0.626 0.5,1.143 1.105,1.143l2.948,0c1.027,0 1.87,-0.871 1.87,-1.933l0,-8.791l1.42,1.252c0.29,0.272 0.659,0.38 1.027,0.38c0.448,0 0.895,-0.19 1.185,-0.57c0.552,-0.654 0.474,-1.688 -0.185,-2.287Z" style="fill:#307d99;"/></svg>