<?xml version="1.0" encoding="UTF-8" standalone="no"?><!DOCTYPE svg PUBLIC "-//W3C//DTD SVG 1.1//EN" "http://www.w3.org/Graphics/SVG/1.1/DTD/svg11.dtd"><svg width="100%" height="100%" viewBox="0 0 26 26" version="1.1" xmlns="http://www.w3.org/2000/svg" xmlns:xlink="http://www.w3.org/1999/xlink" xml:space="preserve" xmlns:serif="http://www.serif.com/" style="fill-rule:evenodd;clip-rule:evenodd;stroke-linejoin:round;stroke-miterlimit:1.41421;"><path id="gavel" d="M3.273,10.592c0.28,-0.276 0.703,-0.349 1.059,-0.181l2.754,-3.571c0.034,-0.065 0.087,-0.118 0.151,-0.152l3.662,-2.844c-0.168,-0.357 -0.095,-0.78 0.182,-1.06l2.027,-2.057c0.369,-0.335 0.932,-0.335 1.302,0l5.84,5.84c0.335,0.369 0.335,0.933 0,1.302l-2.058,2.027c-0.167,0.171 -0.396,0.269 -0.635,0.273c-0.146,0.002 -0.291,-0.029 -0.424,-0.091l-1.12,1.422l8.898,8.504c0.174,0.166 0.272,0.396 0.272,0.636c-0.002,0.243 -0.087,0.478 -0.242,0.666l-3.147,3.147c-0.176,0.155 -0.402,0.241 -0.636,0.242l-0.03,0c-0.24,0 -0.47,-0.098 -0.636,-0.272l-8.473,-8.867l-1.453,1.089c0.168,0.356 0.095,0.779 -0.181,1.059l-2.028,2.058c-0.188,0.155 -0.423,0.24 -0.666,0.242c-0.233,-0.006 -0.457,-0.092 -0.635,-0.242l-5.841,-5.841c-0.335,-0.369 -0.335,-0.932 0,-1.301l2.058,-2.028Z" style="fill:#307d99;"/></svg>