<?xml version="1.0" encoding="UTF-8" standalone="no"?><!DOCTYPE svg PUBLIC "-//W3C//DTD SVG 1.1//EN" "http://www.w3.org/Graphics/SVG/1.1/DTD/svg11.dtd"><svg width="100%" height="100%" viewBox="0 0 26 26" version="1.1" xmlns="http://www.w3.org/2000/svg" xmlns:xlink="http://www.w3.org/1999/xlink" xml:space="preserve" xmlns:serif="http://www.serif.com/" style="fill-rule:evenodd;clip-rule:evenodd;stroke-linejoin:round;stroke-miterlimit:1.41421;"><path d="M25.223,16.365l0,9.286l-5.358,0l0,-8.664c0,-2.176 -0.775,-3.661 -2.715,-3.661c-1.48,0 -2.362,1 -2.75,1.969c-0.14,0.346 -0.177,0.828 -0.177,1.312l0,9.044l-5.36,0c0,0 0.072,-14.674 0,-16.194l5.36,0l0,2.296l-0.036,0.052l0.036,0l0,-0.052c0.712,-1.102 1.983,-2.676 4.83,-2.676c3.526,0 6.17,2.314 6.17,7.288Zm-21.967,-14.714c-1.833,0 -3.033,1.208 -3.033,2.797c0,1.555 1.165,2.8 2.962,2.8l0.036,0c1.869,0 3.031,-1.245 3.031,-2.8c-0.035,-1.589 -1.162,-2.797 -2.996,-2.797Zm-2.715,24l5.358,0l0,-16.194l-5.358,0l0,16.194Z" style="fill:#307d99;fill-rule:nonzero;"/></svg>