<?xml version="1.0" encoding="UTF-8" standalone="no"?><!DOCTYPE svg PUBLIC "-//W3C//DTD SVG 1.1//EN" "http://www.w3.org/Graphics/SVG/1.1/DTD/svg11.dtd"><svg width="100%" height="100%" viewBox="0 0 26 26" version="1.1" xmlns="http://www.w3.org/2000/svg" xmlns:xlink="http://www.w3.org/1999/xlink" xml:space="preserve" xmlns:serif="http://www.serif.com/" style="fill-rule:evenodd;clip-rule:evenodd;stroke-linejoin:round;stroke-miterlimit:1.41421;"><g><path d="M15.327,14.488c-0.408,0 -0.794,0.22 -1.157,0.66l0,-2.659l-1.14,0l0,8.144l1.14,0l0,-0.595c0.374,0.451 0.76,0.677 1.157,0.677c0.465,0 0.766,-0.231 0.902,-0.694c0.08,-0.231 0.12,-0.633 0.12,-1.206l0,-2.411c0,-0.584 -0.04,-0.991 -0.12,-1.222c-0.136,-0.463 -0.437,-0.694 -0.902,-0.694Zm-0.102,4.41c0,0.54 -0.165,0.81 -0.494,0.81c-0.193,0 -0.38,-0.089 -0.561,-0.265l0,-3.7c0.181,-0.175 0.368,-0.264 0.561,-0.264c0.329,0 0.494,0.276 0.494,0.826l0,2.593Zm3.62,-3.941c-0.566,0 -1.011,0.194 -1.334,0.58c-0.222,0.275 -0.333,0.714 -0.333,1.314l0,1.97c0,0.601 0.117,1.038 0.35,1.314c0.322,0.387 0.773,0.58 1.35,0.58c0.59,0 1.035,-0.203 1.335,-0.611c0.133,-0.183 0.217,-0.386 0.25,-0.611c0.022,-0.142 0.033,-0.362 0.033,-0.657l0,-0.137l-1.134,0l0,0.328c0.002,0.12 -0.003,0.24 -0.016,0.359c-0.067,0.265 -0.234,0.396 -0.5,0.396c-0.378,0 -0.567,-0.26 -0.567,-0.778l0,-0.993l2.218,0l0,-1.16c0,-0.59 -0.117,-1.028 -0.35,-1.314c-0.3,-0.386 -0.735,-0.58 -1.302,-0.58Zm0.534,2.215l-1.1,0l0,-0.52c0,-0.52 0.183,-0.779 0.55,-0.779c0.367,0 0.55,0.26 0.55,0.779l0,0.52Z" style="fill:#307d99;fill-rule:nonzero;"/><path d="M11.864,19.291c-0.254,0.32 -0.497,0.48 -0.729,0.48c-0.162,0 -0.25,-0.078 -0.26,-0.233c-0.012,-0.02 -0.018,-0.154 -0.018,-0.402l0,-4.179l-1.146,0l0,4.489c0,0.392 0.034,0.67 0.104,0.835c0.104,0.29 0.347,0.434 0.73,0.434c0.428,0 0.868,-0.232 1.32,-0.697l0,0.62l1.164,0l0,-5.68l-1.164,0l0,4.333l-0.001,0Zm0.75,-10.914c0.277,0 0.415,-0.27 0.415,-0.81l0,-2.478c0,-0.55 -0.138,-0.825 -0.415,-0.825c-0.276,0 -0.414,0.275 -0.414,0.825l0,2.478c0,0.54 0.138,0.81 0.414,0.81Zm-7.052,5.28l1.395,0l0,7.058l1.323,0l0,-7.058l1.43,0l0,-1.168l-4.147,0l-0.001,1.168Z" style="fill:#307d99;"/><path d="M20.808,0.151l-15.557,0c-1.285,0 -2.385,0.453 -3.297,1.357c-0.914,0.906 -1.37,1.995 -1.37,3.27l0,15.423c0,1.274 0.456,2.364 1.37,3.269c0.912,0.905 2.011,1.358 3.297,1.358l15.557,0c1.285,0 2.384,-0.453 3.297,-1.358c0.913,-0.905 1.37,-1.995 1.37,-3.27l0,-15.421c0,-1.275 -0.457,-2.364 -1.37,-3.27c-0.913,-0.905 -2.011,-1.358 -3.297,-1.358Zm-5.526,3.567l1.086,0l0,4.37c0,0.256 0.005,0.396 0.016,0.417c0.01,0.172 0.097,0.257 0.259,0.257c0.216,0 0.443,-0.165 0.68,-0.498l0,-4.546l1.086,0l0,5.943l-1.085,0l0,-0.643c-0.444,0.482 -0.86,0.723 -1.248,0.723c-0.346,0 -0.578,-0.144 -0.697,-0.434c-0.065,-0.192 -0.097,-0.487 -0.097,-0.883l0,-4.706Zm-4.1,1.927c0,-0.62 0.113,-1.087 0.34,-1.397c0.292,-0.407 0.713,-0.61 1.264,-0.61c0.53,0 0.95,0.203 1.264,0.61c0.227,0.31 0.34,0.777 0.34,1.397l0,2.089c0,0.642 -0.113,1.109 -0.34,1.397c-0.313,0.408 -0.735,0.61 -1.264,0.61c-0.55,0 -0.972,-0.203 -1.264,-0.61c-0.227,-0.31 -0.34,-0.775 -0.34,-1.397l0,-2.089Zm-2.918,-3.968l0.86,3.133l0.825,-3.133l1.216,0l-1.457,4.756l0,3.229l-1.2,0l0,-3.229c-0.119,-0.59 -0.367,-1.435 -0.745,-2.538c-0.118,-0.372 -0.242,-0.742 -0.373,-1.11l-0.389,-1.108l1.264,0l-0.001,0Zm13.353,19.391c-0.103,0.452 -0.344,0.862 -0.689,1.173c-0.336,0.314 -0.765,0.511 -1.223,0.562c-1.48,0.161 -3.706,0.242 -6.676,0.242c-2.972,0 -5.197,-0.08 -6.677,-0.242c-0.457,-0.05 -0.886,-0.248 -1.223,-0.562c-0.345,-0.311 -0.586,-0.72 -0.689,-1.173c-0.216,-0.9 -0.324,-2.292 -0.324,-4.177c0,-1.852 0.108,-3.245 0.324,-4.177c0.108,-0.47 0.338,-0.864 0.689,-1.18c0.35,-0.316 0.764,-0.501 1.24,-0.555c1.469,-0.16 3.689,-0.241 6.66,-0.241c2.981,0 5.207,0.08 6.676,0.24c0.465,0.055 0.875,0.24 1.232,0.556c0.356,0.316 0.589,0.71 0.697,1.18c0.205,0.89 0.307,2.281 0.307,4.177c0,1.885 -0.108,3.278 -0.324,4.177Z" style="fill:#307d99;fill-rule:nonzero;"/></g></svg>