<?xml version="1.0" encoding="UTF-8" standalone="no"?><!DOCTYPE svg PUBLIC "-//W3C//DTD SVG 1.1//EN" "http://www.w3.org/Graphics/SVG/1.1/DTD/svg11.dtd"><svg width="100%" height="100%" viewBox="0 0 26 26" version="1.1" xmlns="http://www.w3.org/2000/svg" xmlns:xlink="http://www.w3.org/1999/xlink" xml:space="preserve" xmlns:serif="http://www.serif.com/" style="fill-rule:evenodd;clip-rule:evenodd;stroke-linejoin:round;stroke-miterlimit:1.41421;"><g id="print"><path id="Shape" d="M22.377,7.55l0,9.116c0,0.403 0.005,0.805 0,1.211c0,0.056 -0.003,0.11 -0.012,0.163c0.017,-0.124 0.034,-0.25 0.051,-0.374c-0.014,0.087 -0.036,0.171 -0.067,0.256c0.048,-0.113 0.096,-0.225 0.141,-0.335c-0.04,0.093 -0.088,0.174 -0.147,0.256c0.073,-0.096 0.147,-0.189 0.22,-0.284c-0.062,0.079 -0.13,0.146 -0.206,0.205c0.096,-0.073 0.189,-0.146 0.285,-0.219c-0.079,0.059 -0.164,0.107 -0.257,0.146c0.113,-0.048 0.226,-0.096 0.336,-0.141c-0.085,0.031 -0.166,0.054 -0.257,0.068c0.124,-0.017 0.251,-0.034 0.376,-0.051c-0.161,0.02 -0.325,0.011 -0.486,0.011l-3.564,0c0.472,0.471 0.94,0.938 1.411,1.408l0,-4.504c0,-0.761 -0.646,-1.408 -1.411,-1.408l-10.615,0c-0.488,0 -0.976,-0.006 -1.467,0c-0.006,0 -0.014,0 -0.02,0c-0.762,0 -1.411,0.645 -1.411,1.408l0,4.504c0.472,-0.47 0.94,-0.937 1.411,-1.408c-1.165,0 -2.328,0 -3.493,0c-0.192,0 -0.392,0.015 -0.584,-0.011c0.124,0.017 0.251,0.034 0.375,0.051c-0.087,-0.014 -0.172,-0.037 -0.257,-0.068c0.113,0.048 0.226,0.096 0.336,0.141c-0.093,-0.039 -0.175,-0.087 -0.257,-0.146c0.096,0.073 0.19,0.146 0.285,0.219c-0.079,-0.062 -0.146,-0.129 -0.205,-0.205c0.073,0.095 0.146,0.188 0.22,0.284c-0.06,-0.079 -0.108,-0.163 -0.147,-0.256c0.048,0.113 0.096,0.225 0.141,0.335c-0.031,-0.085 -0.054,-0.166 -0.068,-0.256c0.017,0.124 0.034,0.25 0.051,0.374c-0.045,-0.371 -0.011,-0.766 -0.011,-1.137l0,-8.122c0,-0.406 -0.006,-0.814 0,-1.219c0,-0.057 0.003,-0.11 0.011,-0.164c-0.017,0.124 -0.034,0.251 -0.051,0.375c0.014,-0.088 0.037,-0.172 0.068,-0.256c-0.048,0.112 -0.096,0.225 -0.141,0.335c0.039,-0.093 0.087,-0.175 0.147,-0.257c-0.074,0.096 -0.147,0.189 -0.22,0.285c0.062,-0.079 0.129,-0.147 0.205,-0.206c-0.095,0.073 -0.189,0.147 -0.285,0.22c0.08,-0.059 0.164,-0.107 0.257,-0.147c-0.113,0.048 -0.225,0.096 -0.336,0.141c0.085,-0.031 0.167,-0.053 0.257,-0.067c-0.124,0.016 -0.251,0.033 -0.375,0.05c0.214,-0.025 0.44,-0.011 0.655,-0.011l19.393,0c0.059,0 0.121,0.003 0.181,0.011c-0.125,-0.017 -0.252,-0.034 -0.376,-0.05c0.088,0.014 0.172,0.036 0.257,0.067c-0.113,-0.048 -0.226,-0.096 -0.336,-0.141c0.093,0.04 0.175,0.088 0.257,0.147c-0.096,-0.073 -0.189,-0.147 -0.285,-0.22c0.079,0.062 0.147,0.13 0.206,0.206c-0.073,-0.096 -0.147,-0.189 -0.22,-0.285c0.059,0.079 0.107,0.164 0.147,0.257c-0.048,-0.113 -0.096,-0.226 -0.141,-0.335c0.031,0.084 0.053,0.166 0.067,0.256c-0.017,-0.124 -0.034,-0.251 -0.051,-0.375c0.006,0.048 0.012,0.099 0.012,0.152c0.005,0.366 0.152,0.735 0.412,0.997c0.245,0.245 0.646,0.428 0.999,0.411c0.364,-0.017 0.742,-0.135 0.998,-0.411c0.252,-0.273 0.421,-0.617 0.412,-0.997c-0.011,-0.658 -0.259,-1.264 -0.711,-1.745c-0.443,-0.473 -1.052,-0.701 -1.684,-0.755c-0.074,-0.005 -0.147,-0.005 -0.223,-0.005l-19.819,0c-0.235,0.002 -0.475,0.031 -0.697,0.098c-0.39,0.118 -0.658,0.287 -0.968,0.538c-0.381,0.31 -0.683,0.819 -0.779,1.301c-0.085,0.436 -0.068,0.87 -0.068,1.312l0,9.068c0,0.661 0.006,1.326 0.418,1.897c0.369,0.515 0.886,0.938 1.524,1.062c0.217,0.042 0.431,0.067 0.651,0.067l3.838,0c0.762,0 1.411,-0.645 1.411,-1.408l0,-4.504c-0.472,0.47 -0.94,0.937 -1.411,1.408l10.615,0c0.488,0 0.976,0.008 1.467,0c0.006,0 0.014,0 0.02,0c-0.471,-0.471 -0.94,-0.938 -1.411,-1.408l0,4.504c0,0.761 0.646,1.408 1.411,1.408l3.874,0c0.703,-0.003 1.442,-0.293 1.893,-0.844c0.246,-0.302 0.373,-0.513 0.508,-0.879c0.085,-0.225 0.11,-0.467 0.127,-0.706c0.003,-0.037 0.003,-0.074 0.003,-0.11l0,-7.773c0,-0.831 0.009,-1.659 0,-2.489c0,-0.011 0,-0.025 0,-0.037c0,-0.36 -0.158,-0.74 -0.412,-0.996c-0.245,-0.245 -0.646,-0.428 -0.999,-0.411c-0.364,0.017 -0.742,0.135 -0.999,0.411c-0.239,0.276 -0.4,0.616 -0.4,0.996Z" style="fill:#307d99;fill-rule:nonzero;"/><path id="Shape1" serif:id="Shape" d="M17.665,1.526l0,4.926c0.471,-0.47 0.939,-0.937 1.41,-1.407l-11.103,0c-0.513,0 -1.03,-0.009 -1.543,0c-0.006,0 -0.014,0 -0.02,0c0.471,0.47 0.94,0.937 1.411,1.407l0,-4.926c-0.471,0.47 -0.94,0.937 -1.411,1.407l11.103,0c0.514,0 1.03,0.006 1.544,0c0.005,0 0.014,0 0.019,0c0.362,0 0.743,-0.157 0.999,-0.411c0.246,-0.245 0.429,-0.645 0.412,-0.996c-0.017,-0.364 -0.135,-0.741 -0.412,-0.997c-0.276,-0.253 -0.615,-0.411 -0.999,-0.411l-11.103,0c-0.513,0 -1.03,-0.006 -1.543,0c-0.006,0 -0.014,0 -0.02,0c-0.762,0 -1.411,0.645 -1.411,1.408l0,4.926c0,0.76 0.646,1.408 1.411,1.408l11.103,0c0.514,0 1.03,0.006 1.544,0c0.005,0 0.014,0 0.019,0c0.762,0 1.411,-0.645 1.411,-1.408l0,-4.926c0,-0.361 -0.158,-0.741 -0.412,-0.997c-0.245,-0.242 -0.646,-0.428 -0.999,-0.411c-0.364,0.017 -0.742,0.135 -0.998,0.411c-0.252,0.276 -0.412,0.616 -0.412,0.997Z" style="fill:#307d99;fill-rule:nonzero;"/><path id="Shape2" serif:id="Shape" d="M17.382,14.476l0,9.181c0.472,-0.47 0.94,-0.938 1.411,-1.408l-10.615,0c-0.488,0 -0.976,-0.008 -1.467,0c-0.006,0 -0.014,0 -0.02,0c0.471,0.47 0.94,0.938 1.411,1.408l0,-9.181c-0.471,0.47 -0.94,0.937 -1.411,1.408l10.615,0c0.488,0 0.977,0.005 1.468,0c0.005,0 0.014,0 0.019,0c0.361,0 0.742,-0.158 0.999,-0.411c0.246,-0.245 0.429,-0.645 0.412,-0.997c-0.017,-0.363 -0.135,-0.74 -0.412,-0.997c-0.276,-0.253 -0.615,-0.411 -0.999,-0.411l-10.615,0c-0.488,0 -0.976,-0.005 -1.467,0c-0.006,0 -0.014,0 -0.02,0c-0.762,0 -1.411,0.645 -1.411,1.408l0,9.181c0,0.76 0.646,1.407 1.411,1.407l10.615,0c0.488,0 0.977,0.006 1.468,0c0.005,0 0.014,0 0.019,0c0.762,0 1.411,-0.644 1.411,-1.407l0,-9.181c0,-0.36 -0.158,-0.74 -0.412,-0.997c-0.245,-0.245 -0.646,-0.428 -0.999,-0.411c-0.364,0.017 -0.742,0.135 -0.999,0.411c-0.251,0.276 -0.412,0.617 -0.412,0.997Z" style="fill:#307d99;fill-rule:nonzero;"/><path id="Shape3" serif:id="Shape" d="M6.688,13.068c-0.544,0 -1.092,0 -1.636,0c-0.361,0 -0.742,0.158 -0.999,0.411c-0.246,0.245 -0.429,0.645 -0.412,0.997c0.017,0.363 0.135,0.74 0.412,0.997c0.276,0.253 0.615,0.411 0.999,0.411c0.544,0 1.092,0 1.636,0c0.361,0 0.742,-0.158 0.999,-0.411c0.246,-0.245 0.429,-0.645 0.412,-0.997c-0.017,-0.363 -0.135,-0.74 -0.412,-0.997c-0.276,-0.25 -0.618,-0.411 -0.999,-0.411Z" style="fill:#307d99;fill-rule:nonzero;"/><path id="Shape4" serif:id="Shape" d="M20.402,13.068c-0.537,0 -1.073,0 -1.609,0c-0.361,0 -0.742,0.158 -0.999,0.411c-0.245,0.245 -0.429,0.645 -0.412,0.997c0.017,0.363 0.136,0.74 0.412,0.997c0.277,0.253 0.616,0.411 0.999,0.411c0.536,0 1.072,0 1.609,0c0.361,0 0.742,-0.158 0.998,-0.411c0.246,-0.245 0.429,-0.645 0.412,-0.997c-0.016,-0.363 -0.135,-0.74 -0.412,-0.997c-0.276,-0.25 -0.617,-0.411 -0.998,-0.411Z" style="fill:#307d99;fill-rule:nonzero;"/><path id="Shape5" serif:id="Shape" d="M18.624,11.886c0.31,0 0.621,0 0.931,0c0.361,0 0.742,-0.158 0.999,-0.411c0.245,-0.245 0.429,-0.645 0.412,-0.997c-0.017,-0.363 -0.135,-0.74 -0.412,-0.996c-0.277,-0.254 -0.615,-0.411 -0.999,-0.411c-0.31,0 -0.621,0 -0.931,0c-0.361,0 -0.742,0.157 -0.999,0.411c-0.245,0.245 -0.429,0.644 -0.412,0.996c0.017,0.363 0.136,0.741 0.412,0.997c0.277,0.25 0.618,0.411 0.999,0.411Z" style="fill:#307d99;fill-rule:nonzero;"/><path id="Shape6" serif:id="Shape" d="M10.921,20.388l3.64,0c0.361,0 0.742,-0.158 0.999,-0.411c0.245,-0.245 0.429,-0.645 0.412,-0.997c-0.017,-0.363 -0.136,-0.74 -0.412,-0.996c-0.277,-0.254 -0.615,-0.411 -0.999,-0.411l-3.64,0c-0.361,0 -0.742,0.157 -0.999,0.411c-0.246,0.245 -0.429,0.645 -0.412,0.996c0.017,0.364 0.135,0.741 0.412,0.997c0.276,0.251 0.618,0.411 0.999,0.411Z" style="fill:#307d99;fill-rule:nonzero;"/></g></svg>