<?xml version="1.0" encoding="UTF-8" standalone="no"?><!DOCTYPE svg PUBLIC "-//W3C//DTD SVG 1.1//EN" "http://www.w3.org/Graphics/SVG/1.1/DTD/svg11.dtd"><svg width="100%" height="100%" viewBox="0 0 26 26" version="1.1" xmlns="http://www.w3.org/2000/svg" xmlns:xlink="http://www.w3.org/1999/xlink" xml:space="preserve" xmlns:serif="http://www.serif.com/" style="fill-rule:evenodd;clip-rule:evenodd;stroke-linejoin:round;stroke-miterlimit:1.41421;"><path id="Shape" d="M22.866,6.363c-0.008,-0.04 -0.022,-0.076 -0.034,-0.113c-0.009,-0.028 -0.016,-0.058 -0.028,-0.086c-0.016,-0.039 -0.039,-0.074 -0.06,-0.11c-0.014,-0.025 -0.025,-0.05 -0.041,-0.073c-0.022,-0.033 -0.05,-0.062 -0.076,-0.092c-0.019,-0.022 -0.035,-0.046 -0.055,-0.066l-5.489,-5.415c-0.001,-0.001 -0.002,-0.001 -0.003,-0.002c-0.15,-0.147 -0.344,-0.253 -0.561,-0.295c-0.072,-0.014 -0.144,-0.021 -0.218,-0.021l-9.767,0c-1.458,0 -2.645,1.154 -2.645,2.573l0,19.854c0,1.418 1.186,2.573 2.645,2.573l13.71,0c1.458,0 2.645,-1.154 2.645,-2.573l0,-15.944c-0.001,-0.071 -0.008,-0.142 -0.023,-0.21Zm-5.467,-2.6l1.766,1.742l-1.766,0l0,-1.742Zm3.293,18.753c0,0.241 -0.201,0.437 -0.449,0.437l-13.709,0c-0.247,0 -0.449,-0.196 -0.449,-0.437l0,-19.853c0,-0.241 0.202,-0.437 0.449,-0.437l8.668,0l0,4.347c0,0.59 0.492,1.068 1.099,1.068l4.391,0l0,14.875Zm-2.394,-3.85l-9.819,0c-0.607,0 -1.098,0.478 -1.098,1.068c0,0.59 0.491,1.068 1.098,1.068l9.819,0c0.607,0 1.098,-0.478 1.098,-1.068c0,-0.59 -0.491,-1.068 -1.098,-1.068Zm0,-4.513l-9.819,0c-0.607,0 -1.098,0.479 -1.098,1.069c0,0.59 0.491,1.068 1.098,1.068l9.819,0c0.607,0 1.098,-0.478 1.098,-1.068c0,-0.59 -0.491,-1.069 -1.098,-1.069Zm-10.917,-3.444c0,0.59 0.491,1.069 1.098,1.069l9.819,0c0.607,0 1.098,-0.479 1.098,-1.069c0,-0.59 -0.491,-1.068 -1.098,-1.068l-9.819,0c-0.607,0 -1.098,0.478 -1.098,1.068Z" style="fill:#307d99;fill-rule:nonzero;"/></svg>